<?xml version="1.0" encoding="UTF-8"?>
<svg width="782px" height="508px" viewBox="0 0 782 508" version="1.1" xmlns="http://www.w3.org/2000/svg" xmlns:xlink="http://www.w3.org/1999/xlink">
    <title>-0</title>
    <g id="Page-1" stroke="none" stroke-width="1" fill="none" fill-rule="evenodd">
        <g id="Post" transform="translate(-143.000000, -271.000000)" fill="#000000" fill-rule="nonzero">
            <g id="-0" transform="translate(143.817429, 271.788000)">
                <polygon id="Path" points="290.016 223.668 290.016 304.38 0 304.38 0 223.668"></polygon>
                <path d="M410.888571,252.396 C410.888571,173.508 425.138571,111.72 453.638571,67.032 C482.138571,22.344 529.448571,5.68434189e-14 595.568571,5.68434189e-14 C661.688571,5.68434189e-14 708.998571,22.344 737.498571,67.032 C765.998571,111.72 780.248571,173.508 780.248571,252.396 C780.248571,331.74 765.998571,393.984 737.498571,439.128 C708.998571,484.272 661.688571,506.844 595.568571,506.844 C529.448571,506.844 482.138571,484.272 453.638571,439.128 C425.138571,393.984 410.888571,331.74 410.888571,252.396 Z M685.856571,252.396 C685.856571,218.652 683.690571,190.266 679.358571,167.238 C675.026571,144.21 666.362571,125.4 653.366571,110.808 C640.370571,96.216 621.104571,88.92 595.568571,88.92 C570.032571,88.92 550.766571,96.216 537.770571,110.808 C524.774571,125.4 516.110571,144.21 511.778571,167.238 C507.446571,190.266 505.280571,218.652 505.280571,252.396 C505.280571,287.052 507.332571,316.122 511.436571,339.606 C515.540571,363.09 524.204571,382.014 537.428571,396.378 C550.652571,410.742 570.032571,417.924 595.568571,417.924 C621.104571,417.924 640.484571,410.742 653.708571,396.378 C666.932571,382.014 675.596571,363.09 679.700571,339.606 C683.804571,316.122 685.856571,287.052 685.856571,252.396 Z" id="Shape"></path>
            </g>
        </g>
    </g>
</svg>